<svg width="100%" height="100%" viewBox="0 0 256 256" version="1.1" xmlns="http://www.w3.org/2000/svg" xmlns:xlink="http://www.w3.org/1999/xlink" xml:space="preserve" xmlns:serif="http://www.serif.com/" style="fill-rule:evenodd;clip-rule:evenodd;stroke-linecap:round;stroke-linejoin:round;">
    <path d="M256,50L256,206C256,233.596 233.596,256 206,256L50,256C22.404,256 0,233.596 0,206L0,50C0,22.404 22.404,0 50,0L206,0C233.596,0 256,22.404 256,50Z" style="fill:url(#_Linear1);"/>
    <g transform="matrix(1,0,0,1,0,-6.29663)">
        <path d="M27.074,64.297L219.942,63.925" style="fill:none;fill-rule:nonzero;stroke:white;stroke-width:10px;"/>
    </g>
    <g transform="matrix(1,0,0,1,4.49201,133.703)">
        <path d="M27.074,64.297L219.942,63.925" style="fill:none;fill-rule:nonzero;stroke:white;stroke-width:10px;"/>
    </g>
    <g transform="matrix(1,0,0,1,0,63.889)">
        <path d="M27.074,64.297L219.942,63.925" style="fill:none;fill-rule:nonzero;stroke:white;stroke-width:10px;"/>
    </g>
    <circle cx="128" cy="128" r="70" fill="white" stroke="#f98007" stroke-width="8"/>
  <rect x="118" y="50" width="20" height="16" fill="#2f2b40" rx="4"/>
    <line x1="128" y1="128" x2="128" y2="88" stroke="#2f2b40" stroke-width="8" stroke-linecap="round"/>
    <line x1="128" y1="128" x2="158" y2="138" stroke="#2f2b40" stroke-width="8" stroke-linecap="round"/>

    <defs>
        <linearGradient id="_Linear1" x1="0" y1="0" x2="1" y2="0" gradientUnits="userSpaceOnUse" gradientTransform="matrix(256,256,-256,256,0,0)"><stop offset="0" style="stop-color:rgb(103,91,249);stop-opacity:1"/><stop offset="1" style="stop-color:rgb(62,56,89);stop-opacity:1"/></linearGradient>
    </defs>
</svg>
